<svg width="450" height="414" viewBox="0 0 450 414" fill="none" xmlns="http://www.w3.org/2000/svg">
<path fill-rule="evenodd" clip-rule="evenodd" d="M65.164 -221.756C129.565 -220.618 193.414 -268.461 252.491 -242.795C315.17 -215.566 357.335 -151.73 377 -86.2831C396.422 -21.6441 471.726 -95.076 443 -34C354 -34 186.134 60.4702 138 100.299C85.6725 143.598 -63.5 300.5 -63.5 413.5C-131.514 415.701 -53.9289 293.618 -102.926 246.395C-145.709 205.161 -170.957 153.589 -197.241 100.299C-228.67 36.5782 -284.876 -24.4926 -270.895 -94.1537C-256.659 -165.085 -194.669 -223.819 -127.035 -249.5C-65.0018 -273.054 -1.17969 -222.928 65.164 -221.756Z" fill="#72C6EF" fill-opacity="0.85"/>
</svg>
