<svg width="1920" height="1082" viewBox="0 0 1920 1082" fill="none" xmlns="http://www.w3.org/2000/svg">
<path fill-rule="evenodd" clip-rule="evenodd" d="M1019.02 128.5C1167.52 128.5 1277.02 149.5 1448.52 191.946C1620.02 234.392 1715.52 294.5 2003.52 262C2291.52 229.5 2064.73 542.284 1973.02 621C1886.45 695.302 2230.52 1262 2003.52 1022.5C1703.02 941.5 1086.2 518.619 905.019 534.5C700.693 552.41 301.519 458.5 155.019 388C8.51935 317.5 -27.3087 305.764 -78.0077 213.216C-104.981 122.5 -133.562 81.4346 -37.4807 0C-7.40466 124 349.519 213.216 524.519 191.946C699.519 170.675 870.519 128.5 1019.02 128.5Z" fill="url(#paint0_linear)"/>
<defs>
<linearGradient id="paint0_linear" x1="-43.4806" y1="57.5" x2="1990.02" y2="968.5" gradientUnits="userSpaceOnUse">
<stop stop-color="#72C6EF" stop-opacity="0.85"/>
<stop offset="1" stop-color="#00398F"/>
</linearGradient>
</defs>
</svg>
